# xmcd
#
# Track frame offsets:
#	150
#	18867
#	35759
#	54097
#	71381
#	88435
#	102524
#	120038
#	137238
#	151135
#	167781
#	184166
#	201219
#	218755
#	238713
#	257073
#	272381
#	289732
#
# Disc length: 4072 seconds
# Revision: 0
# Processed by: cddbd v1.5.2PL0 Copyright (c) Steve Scherf et al.
# Submitted via: dBpowerAMP V12.0
#
DISCID=fa0fe612
DTITLE=Various Artist - Country Radio October 2006
DYEAR=2006
DGENRE=Country
TTITLE0=Keith Urban - Once In A Lifetime Love
TTITLE1=Doc Walker - Maria
TTITLE2=Rascal Flatts - My Wish
TTITLE3=Lost Trailers The - Why Me
TTITLE4=Brad Paisley - She's Everything
TTITLE5=Aaron Tippin - Ready To Rock In A Country Kinda Way
TTITLE6=Carolyn Dawn Johnson - Taking Back My Brave
TTITLE7=Lindsey Haun - Broken
TTITLE8=Adam Gregory - She's So California
TTITLE9=Bob Seger - Wait For Me
TTITLE10=Little Big Town - Good As Gone
TTITLE11=Randy Rogers Band The - Kiss Me In The Dark
TTITLE12=Rodney Atkins - Watching You
TTITLE13=Sara Evans - You'll Always Be My Baby
TTITLE14=Shooter Jennings - Gone To California
TTITLE15=Tyler Dean - Built For Jeans
TTITLE16=Rhett Akins - If Heaven Wasn't So Far Away
TTITLE17=Trent Willmon - So Am I
EXTD=
EXTT0=
EXTT1=
EXTT2=
EXTT3=
EXTT4=
EXTT5=
EXTT6=
EXTT7=
EXTT8=
EXTT9=
EXTT10=
EXTT11=
EXTT12=
EXTT13=
EXTT14=
EXTT15=
EXTT16=
EXTT17=
PLAYORDER=
